<svg xmlns="http://www.w3.org/2000/svg" viewBox="0 0 64 64">
  <defs>
    <linearGradient id="ngmGrad" x1="0" y1="0" x2="1" y2="1">
      <stop offset="0%" stop-color="#1d4ed8"/>
      <stop offset="100%" stop-color="#1e3a5f"/>
    </linearGradient>
    <linearGradient id="sunGrad" x1="0" y1="0" x2="0" y2="1">
      <stop offset="0%" stop-color="#fbbf24"/>
      <stop offset="100%" stop-color="#f59e0b"/>
    </linearGradient>
  </defs>
  <circle cx="32" cy="32" r="30" fill="url(#ngmGrad)"/>
  <circle cx="32" cy="32" r="28" fill="none" stroke="rgba(255,255,255,0.15)" stroke-width="1"/>
  <!-- Sun -->
  <circle cx="32" cy="20" r="5" fill="url(#sunGrad)" opacity="0.9"/>
  <path d="M32 13 L32 14 M32 26 L32 27 M25 20 L26 20 M38 20 L39 20 M27 15 L27.7 15.7 M36.3 24.3 L37 25 M27 25 L27.7 24.3 M36.3 15.7 L37 15" stroke="#fbbf24" stroke-width="1" stroke-linecap="round" opacity="0.6"/>
  <!-- Mountain range -->
  <path d="M8 50 L22 30 L30 40 L38 26 L48 40 L56 34 L56 56 L8 56 Z" fill="white" opacity="0.95"/>
  <!-- Primary peak accent (Nepal flag style double-triangle) -->
  <path d="M38 26 L41 26 L46 39 L44 39 Z" fill="#dc2626" opacity="0.9"/>
  <path d="M38 26 L44 32 L44 39 L41 33 Z" fill="#1d4ed8" opacity="0.9"/>
  <!-- Data nodes -->
  <circle cx="12" cy="44" r="1.5" fill="#60a5fa" opacity="0.7"/>
  <circle cx="20" cy="38" r="1.5" fill="#60a5fa" opacity="0.7"/>
  <circle cx="50" cy="42" r="1.5" fill="#60a5fa" opacity="0.7"/>
  <circle cx="54" cy="38" r="1.5" fill="#60a5fa" opacity="0.7"/>
  <!-- Connecting lines (data/network motif) -->
  <line x1="12" y1="44" x2="20" y2="38" stroke="#60a5fa" stroke-width="0.5" opacity="0.4"/>
  <line x1="20" y1="38" x2="30" y2="40" stroke="#60a5fa" stroke-width="0.5" opacity="0.4"/>
  <line x1="50" y1="42" x2="54" y2="38" stroke="#60a5fa" stroke-width="0.5" opacity="0.4"/>
  <line x1="50" y1="42" x2="48" y2="40" stroke="#60a5fa" stroke-width="0.5" opacity="0.4"/>
  <!-- Bottom trim -->
  <rect x="8" y="52" width="48" height="4" rx="2" fill="rgba(255,255,255,0.1)"/>
</svg>
